<svg width="44" height="44" viewBox="0 0 44 44" fill="none" xmlns="http://www.w3.org/2000/svg">
<g clip-path="url(#clip0_7712_13947)">
<path d="M19 31C19 29.3425 20.3425 28 22 28C23.6575 28 25 29.3425 25 31C25 32.6575 23.6575 34 22 34C20.3425 34 19 32.6575 19 31ZM6.25 31C6.25 32.6575 7.5925 34 9.25 34C10.9075 34 12.25 32.6575 12.25 31C12.25 29.3425 10.9075 28 9.25 28C7.5925 28 6.25 29.3425 6.25 31ZM8.5 18.25C8.5 17.8375 8.836 17.5 9.25 17.5H13V26.5H17.5V17.5H26.5V13H9.25C6.355 13 4 15.355 4 18.25V26.5H8.5V18.25ZM10.75 11.5C12.8215 11.5 14.5 9.8215 14.5 7.75C14.5 5.6785 12.8215 4 10.75 4C8.6785 4 7 5.6785 7 7.75C7 9.8215 8.6785 11.5 10.75 11.5ZM11.5 35.5H7C5.3425 35.5 4 36.8425 4 38.5V40H14.5V38.5C14.5 36.8425 13.1575 35.5 11.5 35.5ZM34.75 34C36.4075 34 37.75 32.6575 37.75 31C37.75 29.3425 36.4075 28 34.75 28C33.0925 28 31.75 29.3425 31.75 31C31.75 32.6575 33.0925 34 34.75 34ZM34.75 4H16.36C17.0785 5.0725 17.5 6.3625 17.5 7.75C17.5 8.0065 17.452 8.251 17.425 8.5H34.75C35.164 8.5 35.5 8.8375 35.5 9.25V22H32.5V19H26.5V22H20.5V26.5H40V9.25C40 6.355 37.645 4 34.75 4ZM37 35.5H32.5C30.8425 35.5 29.5 36.8425 29.5 38.5V40H40V38.5C40 36.8425 38.6575 35.5 37 35.5ZM24.25 35.5H19.75C18.0925 35.5 16.75 36.8425 16.75 38.5V40H27.25V38.5C27.25 36.8425 25.9075 35.5 24.25 35.5Z" fill="#1E1E1E"/>
</g>
<defs>
<clipPath id="clip0_7712_13947">
<rect width="36" height="36" fill="white" transform="translate(4 4)"/>
</clipPath>
</defs>
</svg>
