<svg width="44" height="44" viewBox="0 0 44 44" fill="none" xmlns="http://www.w3.org/2000/svg">
<path d="M34.75 4H24.25C21.355 4 19 6.355 19 9.25V13H8.5V4H4V40H8.5V35.5H35.5V40H40V9.25C40 6.355 37.645 4 34.75 4ZM35.5 31H23.5V27.25C23.5 26.836 23.836 26.5 24.25 26.5H35.5V31ZM35.5 22H24.25C21.355 22 19 24.355 19 27.25V31H8.5V17.5H35.5V22ZM35.5 13H23.5V9.25C23.5 8.836 23.836 8.5 24.25 8.5H34.75C35.164 8.5 35.5 8.836 35.5 9.25V13ZM10 7.75C10 5.6785 11.6785 4 13.75 4C15.8215 4 17.5 5.6785 17.5 7.75C17.5 9.8215 15.8215 11.5 13.75 11.5C11.6785 11.5 10 9.8215 10 7.75ZM10 25.75C10 23.6785 11.6785 22 13.75 22C15.8215 22 17.5 23.6785 17.5 25.75C17.5 27.8215 15.8215 29.5 13.75 29.5C11.6785 29.5 10 27.8215 10 25.75Z" fill="#1E1E1E"/>
</svg>
