<svg width="44" height="44" viewBox="0 0 44 44" fill="none" xmlns="http://www.w3.org/2000/svg">
<path d="M9.87755 11.1213V12.342C9.48606 12.7526 9.2501 13.334 9.2501 13.9497C9.2501 15.1109 10.089 16.1567 11.2301 16.1567C11.3028 16.1567 11.372 16.1539 11.4436 16.1445C11.8509 17.293 12.624 18.2679 13.625 18.9338C13.6245 19.2382 13.6238 19.5403 13.6238 19.8457C12.3745 20.4204 11.1233 20.9926 9.86892 21.5681C9.14937 21.9151 8.43771 22.2326 7.83034 22.7095C7.1805 23.2197 6.72917 23.8667 6.58522 24.7725L5.74048 30.0911C4.86016 30.4802 4.25 31.3578 4.25 32.375V39.25C4.25 40.6242 5.35263 41.75 6.75122 41.75H19.2488C20.6474 41.75 21.75 40.6242 21.75 39.25V34.875H24.4209C25.3915 34.875 26.3346 34.4981 27.0027 33.9045C27.7002 33.2849 28.1257 32.3854 27.9695 31.4021L26.9172 24.7725C26.7734 23.8667 26.322 23.2197 25.6721 22.7095C25.0648 22.2326 24.3525 21.9151 23.6323 21.5681C22.3775 20.9922 21.1268 20.4203 19.8774 19.8457C19.8775 19.542 19.877 19.2415 19.8762 18.9387C20.8772 18.2729 21.6515 17.3027 22.0588 16.1421C22.1306 16.1515 22.2034 16.1567 22.2762 16.1567C23.4173 16.1567 24.2501 15.111 24.25 13.9497C24.25 13.3347 24.0169 12.7538 23.6275 12.3433V11.1213C23.6275 7.32253 20.5521 4.25 16.7537 4.25C12.9761 4.25 9.87755 7.29324 9.87755 11.1213ZM37.3714 5.50122C37.0263 5.4999 36.7454 5.77861 36.744 6.12378V13.625H35.5001V7.99756C35.4987 7.6543 35.2208 7.37637 34.8775 7.375H32.3775C32.0324 7.37368 31.7515 7.65239 31.7501 7.99756V13.625H30.5001V9.87256C30.4987 9.5293 30.2208 9.25137 29.8775 9.25H27.3775C27.0319 9.24801 26.7503 9.52692 26.7489 9.87256V13.625H26.1251C25.2916 13.625 25.2916 14.875 26.1251 14.875H41.1251C41.9586 14.875 41.9586 13.625 41.1251 13.625H40.4952V6.12378C40.4938 5.78052 40.2159 5.50259 39.8727 5.50122H37.3714ZM18.818 10.9504C18.9736 11.3714 19.2164 11.7589 19.5394 12.082C19.9752 12.5179 20.5324 12.8149 21.1276 12.9377V14.2866C21.1276 16.6967 19.1698 18.625 16.7525 18.625C14.3158 18.625 12.3788 16.6967 12.3788 14.2866V12.9866C14.8615 12.8836 17.2018 12.1464 18.818 10.9504ZM22.3775 13.0098C22.6971 13.0724 22.9974 13.4454 23.0026 13.9497C22.9955 14.4949 22.6724 14.8568 22.3409 14.9006C22.3622 14.6989 22.3775 14.4942 22.3775 14.2866V13.0098ZM11.1263 13.011C11.1263 13.672 11.1122 14.566 11.1618 14.9007C10.8302 14.8567 10.5002 14.4949 10.5002 13.9497C10.5002 13.4374 10.8063 13.073 11.1263 13.011ZM36.7501 17.9988V19.2488C36.7501 19.6653 37.0627 19.8745 37.3751 19.875C37.6875 19.8745 38.0001 19.6653 38.0001 19.2488V17.9988C38.0001 17.6525 37.7393 17.383 37.3751 17.3763C37.0109 17.383 36.7501 17.6525 36.7501 17.9988ZM33.547 19.4344L34.4332 20.3157C35.0499 20.8892 35.8896 20.0251 35.3194 19.4344L34.4332 18.5481C34.3156 18.4271 34.1637 18.3662 33.995 18.3662C33.43 18.3619 33.1569 19.0475 33.547 19.4344ZM40.7552 18.3662C40.5866 18.3663 40.4347 18.4272 40.317 18.5481L39.4308 19.4344C38.8605 20.0251 39.7003 20.8892 40.317 20.3157L41.2032 19.4344C41.5933 19.0475 41.3201 18.3619 40.7552 18.3662ZM18.6263 19.5564V20.2925L17.0626 22.3726H16.44L14.8763 20.2925V19.5588C15.4633 19.7654 16.095 19.875 16.7525 19.875C17.4091 19.875 18.0401 19.7624 18.6263 19.5564ZM13.912 21.0896L15.3036 22.939L14.3038 23.9412L12.5326 21.722L13.912 21.0896ZM19.5907 21.0896L20.9701 21.722L19.1988 23.9412L18.1991 22.939L19.5907 21.0896ZM36.8966 21.3435L33.1454 25.7173C32.7952 26.1231 33.0854 26.753 33.6214 26.7513H34.8714C34.8714 30.0753 33.9686 32.7168 32.3019 34.5296C30.6528 36.3231 28.1788 37.3763 24.8739 37.3763C24.4911 37.3763 24.2501 37.6901 24.2501 38.0049C24.2501 38.2859 24.4792 38.6263 24.8739 38.6263C28.2319 38.6263 31.9543 38.4747 34.8617 36.9099C37.8482 35.3237 39.8751 32.2134 39.8751 26.75C40.2452 26.7857 40.7273 26.7571 41.1324 26.7513C41.6619 26.7414 41.9399 26.1182 41.5939 25.7174L37.8475 21.3435C37.7233 21.199 37.5399 21.12 37.3495 21.1275C37.1751 21.1335 37.0104 21.2113 36.8966 21.3435ZM11.357 22.2603L13.7643 25.2657C13.997 25.5548 14.4289 25.5787 14.692 25.3169L14.8689 25.1399L15.4231 25.6844L14.9348 27.3738H11.0457C10.0438 27.3738 9.25126 28.1885 9.25126 29.1731V29.875H7.043L7.82182 24.9702C7.91631 24.3754 8.19935 24.0111 8.6055 23.6922C9.04076 23.3504 9.6719 23.0493 10.3999 22.6985L11.357 22.2603ZM22.1456 22.2603L23.1026 22.6985C23.8301 23.0493 24.4618 23.3504 24.8971 23.6922C25.3032 24.0111 25.5862 24.3754 25.6808 24.9703L26.733 31.5999C26.8152 32.1172 26.5899 32.5967 26.1703 32.9695C25.7137 33.3752 25.0738 33.625 24.421 33.625H21.7501V32.375C21.7501 31.0149 20.6617 29.8989 19.2904 29.8762L18.0795 25.6843L18.6337 25.1399L18.8106 25.3169C19.0737 25.5786 19.5056 25.5548 19.7383 25.2656L22.1456 22.2603ZM16.3851 23.6226H17.1175L17.7511 24.2561L16.7513 25.2376L15.7516 24.2561L16.3851 23.6226ZM16.4399 26.656C16.537 26.7116 16.6438 26.7306 16.75 26.7305C16.8563 26.7306 16.9643 26.7116 17.0613 26.656L17.9878 29.875H16.7488V29.1731C16.7488 28.6254 16.5053 28.1326 16.1152 27.8011L16.4399 26.656ZM11.0456 28.6238H14.9543C15.2681 28.6238 15.4988 28.8801 15.4988 29.1731V29.875H10.5012V29.1731C10.5012 28.8801 10.732 28.6238 11.0456 28.6238ZM6.7512 31.125H19.2488C19.935 31.125 20.5 31.6717 20.5 32.375V32.9976C20.5 34.5245 19.4268 35.7777 17.9988 36.064V35.4988C17.9988 35.1148 17.6896 34.8763 17.3713 34.8763H14.8713C14.5278 34.8774 14.2488 35.1553 14.2475 35.4988V36.1263H11.7524V35.4988C11.7512 35.1553 11.4721 34.8774 11.1286 34.8763H8.62865C8.31042 34.8763 8.0012 35.1148 8.0012 35.4988V36.064C6.57316 35.7776 5.49998 34.5244 5.49998 32.9976V32.375C5.49998 31.6717 6.06498 31.125 6.7512 31.125ZM5.49999 36.0664C6.15418 36.7346 7.0234 37.1891 8.00121 37.3274V37.9988C7.99988 38.3459 8.28155 38.6288 8.62866 38.6275H11.1286C11.4739 38.6262 11.7537 38.3441 11.7524 37.9988V37.3763H14.2475V37.9988C14.2462 38.3441 14.526 38.6263 14.8713 38.6275H17.3713C17.7184 38.6288 18.0001 38.3459 17.9988 37.9988V37.3274C18.9766 37.1891 19.8458 36.7346 20.5 36.0664V39.25C20.5 39.9533 19.9374 40.5 19.2488 40.5H6.7512C6.06254 40.5 5.49998 39.9533 5.49998 39.25L5.49999 36.0664Z" fill="black"/>
</svg>
