<svg width="44" height="44" viewBox="0 0 44 44" fill="none" xmlns="http://www.w3.org/2000/svg">
<g clip-path="url(#clip0_7712_13952)">
<path d="M40.0015 31.7965V29.503H32.5075C34.3525 27.595 35.5015 24.94 35.5015 22.003C35.5015 16.3165 31.1995 11.6815 25.855 11.515C26.848 11.272 27.9355 10.8235 28.8055 9.967C30.9505 7.8565 31.0015 4.0135 31.0015 4.0135C31.0015 4.0135 27.385 3.7495 25.24 5.86C24.091 6.991 23.578 8.6035 23.3455 9.862C22.9855 7.2265 22.045 5.131 21.427 4L18.793 5.4355C19.2805 6.328 20.3665 8.647 20.479 11.5H18.442C12.9595 11.5 8.5 16.213 8.5 22.0045C8.5 24.9415 9.649 27.5965 11.494 29.5045H9.25C6.355 29.5045 4 31.8595 4 34.7545C4 37.6495 6.355 40.0045 9.25 40.0045H40L39.9895 37.7185L39.5485 37.2775C39.538 37.267 38.5 36.217 38.5 34.7545C38.5 33.292 39.538 32.2405 39.538 32.2405L40 31.798L40.0015 31.7965ZM18.4435 14.4985H25.5595C29.3875 14.4985 32.5015 17.8645 32.5015 22.003C32.5015 26.1415 29.56 29.4745 25.7515 29.4985C24.673 29.4865 23.7115 29.212 22.738 28.6615L22.0015 28.246L21.265 28.6615C20.2915 29.2105 19.33 29.4865 18.2515 29.4985C14.443 29.4745 11.5015 26.1265 11.5015 22.003C11.5015 17.8795 14.6155 14.4985 18.4435 14.4985ZM35.9155 37.003H9.2515C8.011 37.003 7.0015 35.9935 7.0015 34.753C7.0015 33.5125 8.011 32.503 9.2515 32.503H35.9155C35.6725 33.148 35.5015 33.904 35.5015 34.753C35.5015 35.602 35.6725 36.358 35.9155 37.003Z" fill="#1E1E1E"/>
</g>
<defs>
<clipPath id="clip0_7712_13952">
<rect width="36" height="36" fill="white" transform="translate(4 4)"/>
</clipPath>
</defs>
</svg>
