<svg width="44" height="44" viewBox="0 0 44 44" fill="none" xmlns="http://www.w3.org/2000/svg">
<g clip-path="url(#clip0_7712_13912)">
<path d="M36.6667 33C38.6925 33 40.315 31.3592 40.315 29.3333L40.3333 9.16667C40.3333 7.14083 38.6925 5.5 36.6667 5.5H7.33333C5.3075 5.5 3.66667 7.14083 3.66667 9.16667V29.3333C3.66667 31.3592 5.3075 33 7.33333 33H0C0 35.0258 1.64083 36.6667 3.66667 36.6667H40.3333C42.3592 36.6667 44 35.0258 44 33H36.6667ZM7.33333 9.16667H36.6667V29.3333H7.33333V9.16667ZM22 34.8333C20.9917 34.8333 20.1667 34.0083 20.1667 33C20.1667 31.9917 20.9917 31.1667 22 31.1667C23.0083 31.1667 23.8333 31.9917 23.8333 33C23.8333 34.0083 23.0083 34.8333 22 34.8333Z" fill="#1E1E1E"/>
</g>
<defs>
<clipPath id="clip0_7712_13912">
<rect width="44" height="44" fill="white"/>
</clipPath>
</defs>
</svg>
