<svg width="44" height="44" viewBox="0 0 44 44" fill="none" xmlns="http://www.w3.org/2000/svg">
<g clip-path="url(#clip0_7712_13957)">
<path d="M39 8.46942V12.0833C39 13.6487 37.7321 14.9167 36.1667 14.9167H31.9167C30.3512 14.9167 29.0833 13.6487 29.0833 12.0833V7.83333C29.0833 6.26792 30.3512 5 31.9167 5H36.1667C36.8112 5 37.3978 5.22383 37.8737 5.5865L34.1238 9.43133L32.5513 7.73842L30.5864 9.77983L32.9253 12.2817C33.5699 12.9588 34.648 12.9631 35.2968 12.2916L39 8.46942ZM32.9267 24.3233L30.5878 21.8215L32.5527 19.7801L34.1252 21.473L37.8752 17.6282C37.3992 17.2655 36.8112 17.0417 36.1681 17.0417H31.9181C30.3527 17.0417 29.0847 18.3096 29.0847 19.875V24.125C29.0847 25.6904 30.3527 26.9583 31.9181 26.9583H36.1681C37.7335 26.9583 39.0014 25.6904 39.0014 24.125V20.5111L35.2997 24.3333C34.6494 25.0047 33.5713 25.0005 32.9282 24.3233H32.9267ZM32.9267 36.365L30.5878 33.8632L32.5527 31.8218L34.1252 33.5147L37.8752 29.6698C37.3992 29.3072 36.8112 29.0833 36.1681 29.0833H31.9181C30.3527 29.0833 29.0847 30.3512 29.0847 31.9167V36.1667C29.0847 37.7321 30.3527 39 31.9181 39H36.1681C37.7335 39 39.0014 37.7321 39.0014 36.1667V32.5527L35.2997 36.3749C34.6494 37.0464 33.5713 37.0422 32.9282 36.365H32.9267ZM11.375 12.0833C13.3314 12.0833 14.9167 10.4981 14.9167 8.54167C14.9167 6.58525 13.3314 5 11.375 5C9.41858 5 7.83333 6.58525 7.83333 8.54167C7.83333 10.4981 9.41858 12.0833 11.375 12.0833ZM17.75 17.75V29.0833H14.9167V39H12.0833V29.0833H10.6667V39H7.83333V29.0833H5V17.75C5 15.4068 6.90683 13.5 9.25 13.5H13.5C15.8432 13.5 17.75 15.4068 17.75 17.75ZM14.9167 17.75C14.9167 16.968 14.2806 16.3333 13.5 16.3333H9.25C8.46942 16.3333 7.83333 16.968 7.83333 17.75V26.25H14.9167V17.75ZM20.5833 11.375V32.625C20.5833 34.5786 22.1728 36.1667 24.125 36.1667H26.25V33.3333H24.125C23.734 33.3333 23.4167 33.0146 23.4167 32.625V23.4167H26.25V20.5833H23.4167V11.375C23.4167 10.9854 23.734 10.6667 24.125 10.6667H26.25V7.83333H24.125C22.1728 7.83333 20.5833 9.42142 20.5833 11.375Z" fill="#1E1E1E"/>
</g>
<defs>
<clipPath id="clip0_7712_13957">
<rect width="34" height="34" fill="white" transform="translate(5 5)"/>
</clipPath>
</defs>
</svg>
