<svg width="44" height="44" viewBox="0 0 44 44" fill="none" xmlns="http://www.w3.org/2000/svg">
<path d="M8.5 8.5C8.5 6.8425 9.8425 5.5 11.5 5.5C13.1575 5.5 14.5 6.8425 14.5 8.5C14.5 10.1575 13.1575 11.5 11.5 11.5C9.8425 11.5 8.5 10.1575 8.5 8.5ZM22 11.5C24.0715 11.5 25.75 9.8215 25.75 7.75C25.75 5.6785 24.0715 4 22 4C19.9285 4 18.25 5.6785 18.25 7.75C18.25 9.8215 19.9285 11.5 22 11.5ZM32.5 11.5C34.1575 11.5 35.5 10.1575 35.5 8.5C35.5 6.8425 34.1575 5.5 32.5 5.5C30.8425 5.5 29.5 6.8425 29.5 8.5C29.5 10.1575 30.8425 11.5 32.5 11.5ZM40 22C40 31.9255 31.9255 40 22 40C12.0745 40 4 31.9255 4 22H7C7 23.5675 7.2445 25.078 7.6915 26.5H12.8545C12.4855 25.066 12.25 23.563 12.25 22H15.25C15.25 23.56 15.5185 25.072 15.955 26.5H28.042C28.48 25.0705 28.75 23.5585 28.75 22H31.75C31.75 23.563 31.5145 25.066 31.1455 26.5H36.3085C36.757 25.078 37 23.5675 37 22H40ZM17.1595 29.5C18.6955 32.6275 20.7775 35.0875 21.9985 36.379C23.2165 35.086 25.297 32.6245 26.8345 29.5H17.161H17.1595ZM18.082 36.463C16.672 34.7125 15.046 32.3125 13.8655 29.5H9.0295C10.9915 32.8795 14.2285 35.4175 18.082 36.463ZM34.969 29.5H30.1315C28.951 32.3125 27.3265 34.7125 25.915 36.463C29.7685 35.4175 33.0085 32.878 34.969 29.5ZM19 16.75C19 16.3375 19.336 16 19.75 16H24.25C24.664 16 25 16.3375 25 16.75V19H28V16.75C28 14.6815 26.317 13 24.25 13H19.75C17.683 13 16 14.6815 16 16.75V19H19V16.75ZM29.857 13C30.4435 13.8745 30.8005 14.902 30.9235 16H34.75C35.164 16 35.5 16.3375 35.5 16.75V19H38.5V16.75C38.5 14.6815 36.817 13 34.75 13H29.857ZM8.5 16.75C8.5 16.3375 8.836 16 9.25 16H13.0765C13.1995 14.902 13.5565 13.8745 14.143 13H9.25C7.183 13 5.5 14.6815 5.5 16.75V19H8.5V16.75Z" fill="#1E1E1E"/>
</svg>
