<svg width="44" height="44" viewBox="0 0 44 44" fill="none" xmlns="http://www.w3.org/2000/svg">
<path d="M41.3239 13.2899H41.2882C40.6021 13.2943 40.4957 12.6984 40.4838 12.4217V8.09415C40.4838 7.63216 40.1095 7.25781 39.6488 7.25781H27.2759C24.1716 7.25781 23.0135 8.4084 22.7262 8.7696L22.6473 8.87915L22.6467 8.88102L22.4019 9.21656C22.0732 9.6679 21.7865 9.47572 21.6488 9.32799L21.1806 8.74393L20.9489 8.46474C20.5596 8.05596 19.5448 7.25781 17.5335 7.25781H4.35187C3.88989 7.25781 3.51554 7.63216 3.51554 8.09415V12.3666C3.51554 13.1146 3.10927 13.2649 2.86012 13.2899H2.67483C2.472 13.3024 2 13.4201 2 14.2884V34.6515C2 35.151 2.40502 35.5554 2.90457 35.5554H14.935C18.773 35.5554 20.4456 37.0027 20.9471 37.558L21.2332 37.9123C21.2332 37.9123 22.0013 38.7806 22.81 37.9123L22.9778 37.7157L22.9803 37.7145L23.1944 37.4641C23.2007 37.4566 23.252 37.399 23.3265 37.3226C23.9669 36.6997 25.5676 35.5554 28.6975 35.5554H41.0954C41.5956 35.5554 42 35.151 42 34.6515V14.0912C42 13.355 41.4673 13.2937 41.3239 13.2899ZM38.6209 31.4564C38.6209 31.8576 38.286 32.1813 37.869 32.1813H27.6684C24.0382 32.1813 22.7205 33.8214 22.7205 33.8214L22.5534 34.0455L22.4751 34.1538C22.129 34.6239 21.6194 34.1576 21.6169 34.1551L21.3821 33.8615C21.2081 33.6524 19.8747 32.1807 16.6477 32.1807H6.13096C5.71592 32.1807 5.38039 31.8564 5.38039 31.4558V9.75742C5.38039 9.35678 5.71592 9.03252 6.13096 9.03252H14.2958C20.3693 9.03252 20.9446 12.4824 20.984 13.4846V28.5749C20.984 29.6717 21.5067 29.8776 21.8016 29.9077H22.2404C22.5409 29.8776 23.0185 29.6992 23.0185 28.8435V13.2899H23.0135C23.0586 12.0348 23.5481 9.03189 27.2008 9.03189H37.869C38.286 9.03189 38.6209 9.35616 38.6209 9.7568V31.4564Z" fill="#1E1E1E"/>
</svg>
