<svg width="44" height="44" viewBox="0 0 44 44" fill="none" xmlns="http://www.w3.org/2000/svg">
<g clip-path="url(#clip0_7841_2641)">
<path d="M32.5 4H11.5C9.51161 4.00238 7.60534 4.79332 6.19933 6.19933C4.79332 7.60534 4.00238 9.51161 4 11.5L4 32.5C4.00238 34.4884 4.79332 36.3947 6.19933 37.8007C7.60534 39.2067 9.51161 39.9976 11.5 40H32.5C34.4884 39.9976 36.3947 39.2067 37.8007 37.8007C39.2067 36.3947 39.9976 34.4884 40 32.5V11.5C39.9976 9.51161 39.2067 7.60534 37.8007 6.19933C36.3947 4.79332 34.4884 4.00238 32.5 4ZM37 32.5C37 33.6935 36.5259 34.8381 35.682 35.682C34.8381 36.5259 33.6935 37 32.5 37H11.5C10.3065 37 9.16193 36.5259 8.31802 35.682C7.47411 34.8381 7 33.6935 7 32.5V11.5C7 10.3065 7.47411 9.16193 8.31802 8.31802C9.16193 7.47411 10.3065 7 11.5 7H32.5C33.6935 7 34.8381 7.47411 35.682 8.31802C36.5259 9.16193 37 10.3065 37 11.5V32.5Z" fill="#1E1E1E"/>
<path d="M18.0012 27.8797L12.1227 22.0012C11.8414 21.72 11.4599 21.562 11.0622 21.562C10.6644 21.562 10.283 21.72 10.0017 22.0012C9.72047 22.2825 9.5625 22.6639 9.5625 23.0617C9.5625 23.4594 9.72047 23.8409 10.0017 24.1222L15.8802 30.0007C16.1588 30.2794 16.4895 30.5005 16.8536 30.6513C17.2177 30.8022 17.6079 30.8798 18.0019 30.8798C18.396 30.8798 18.7862 30.8022 19.1503 30.6513C19.5143 30.5005 19.8451 30.2794 20.1237 30.0007L34.0017 16.1227C34.2829 15.8414 34.4409 15.4599 34.4409 15.0622C34.4409 14.6644 34.2829 14.283 34.0017 14.0017C33.7204 13.7205 33.3389 13.5625 32.9412 13.5625C32.5434 13.5625 32.162 13.7205 31.8807 14.0017L18.0012 27.8797Z" fill="#1E1E1E"/>
</g>
<defs>
<clipPath id="clip0_7841_2641">
<rect width="36" height="36" fill="white" transform="translate(4 4)"/>
</clipPath>
</defs>
</svg>
