<svg width="38" height="38" viewBox="0 0 38 38" fill="none" xmlns="http://www.w3.org/2000/svg">
<path d="M38 17.4167C38 14.934 36.8093 12.6033 34.8333 11.1166V11.0833C34.8333 8.07975 32.7323 5.55908 29.9218 4.9115C29.2743 2.10267 26.752 0 23.75 0C21.8595 0 20.1606 0.832833 19 2.14858C17.8394 0.83125 16.1405 0 14.25 0C11.248 0 8.72575 2.10108 8.07817 4.9115C5.26933 5.55908 3.16667 8.07975 3.16667 11.0833V11.1166C1.19067 12.6033 0 14.9324 0 17.4167C0 18.8195 0.372083 20.1669 1.08617 21.375C0.373667 22.5831 0 23.9305 0 25.3333C0 28.0028 1.3585 30.4697 3.58942 31.9295C4.72783 35.5363 8.04175 38 11.875 38C14.8168 38 17.423 36.5338 19 34.2918C20.577 36.5323 23.1832 38 26.125 38C29.9598 38 33.2738 35.5363 34.4106 31.9295C36.6399 30.4697 38 28.0028 38 25.3333C38 23.9305 37.6279 22.5831 36.9138 21.375C37.6263 20.1669 38 18.8195 38 17.4167ZM11.875 34.8333C9.28783 34.8333 7.07275 33.0679 6.49008 30.5393C6.38717 30.0944 6.09742 29.716 5.69525 29.5007C4.13567 28.6647 3.16667 27.0687 3.16667 25.3349C3.16667 24.2662 3.53717 23.2418 4.24175 22.3709C4.71042 21.7898 4.71042 20.9618 4.24175 20.3807C3.53875 19.5114 3.16667 18.487 3.16667 17.4167C3.16667 15.7225 4.10242 14.1439 5.60975 13.2953C6.19558 12.9659 6.50908 12.3025 6.39192 11.6407C6.36025 11.4586 6.33333 11.2749 6.33333 11.0833C6.33333 9.33692 7.75358 7.91667 9.5 7.91667C10.3756 7.91667 11.0833 7.20733 11.0833 6.33333C11.0833 4.58692 12.5036 3.16667 14.25 3.16667C15.9964 3.16667 17.4167 4.58692 17.4167 6.33333V12.6667H13.8257C13.2778 11.7198 12.255 11.0833 11.0833 11.0833C9.33375 11.0833 7.91667 12.5004 7.91667 14.25C7.91667 15.9996 9.33375 17.4167 11.0833 17.4167C12.255 17.4167 13.2778 16.7802 13.8257 15.8333H17.4167V23.75H13.8257C13.2778 22.8032 12.255 22.1667 11.0833 22.1667C9.33375 22.1667 7.91667 23.5837 7.91667 25.3333C7.91667 27.0829 9.33375 28.5 11.0833 28.5C12.255 28.5 13.2778 27.8635 13.8257 26.9167H17.4167V29.2917C17.4167 32.3475 14.9308 34.8333 11.875 34.8333ZM33.7583 22.3693C34.4613 23.2386 34.8333 24.263 34.8333 25.3333C34.8333 27.0687 33.8659 28.6647 32.3048 29.4991C31.9026 29.7144 31.6128 30.0928 31.5099 30.5378C30.9272 33.0663 28.7106 34.8318 26.125 34.8318C23.0692 34.8318 20.5833 32.3459 20.5833 29.2901V22.1651H23.75C26.3688 22.1651 28.5 20.0339 28.5 17.4151V16.9908C29.4468 16.4429 30.0833 15.4201 30.0833 14.2484C30.0833 12.4988 28.6663 11.0817 26.9167 11.0817C25.1671 11.0817 23.75 12.4988 23.75 14.2484C23.75 15.4201 24.3865 16.4429 25.3333 16.9908V17.4151C25.3333 18.2875 24.624 18.9984 23.75 18.9984H20.5833V6.33333C20.5833 4.58692 22.0036 3.16667 23.75 3.16667C25.4964 3.16667 26.9167 4.58692 26.9167 6.33333C26.9167 7.20733 27.6244 7.91667 28.5 7.91667C30.2464 7.91667 31.6667 9.33692 31.6667 11.0833C31.6667 11.2749 31.6382 11.4586 31.6081 11.6407C31.4909 12.3025 31.8044 12.9659 32.3903 13.2953C33.8976 14.1423 34.8333 15.7225 34.8333 17.4167C34.8333 18.4854 34.4628 19.5098 33.7583 20.3807C33.2896 20.9618 33.2896 21.7883 33.7583 22.3693Z" fill="#1E1E1E"/>
</svg>
