<svg
    class="d-block flex-shrink-0"
    style="color:#F1592A"
    width="24"
    height="24"
    viewBox="0 0 24 24"
    fill="currentColor"
    xmlns="http://www.w3.org/2000/svg">
        <path
            d="M11 24C4.935 24 0 19.065 0 13C0 6.935 4.935 2 11 2C13.109 2 15.161 2.601 16.934 3.739C17.166 3.888 17.234 4.197 17.085 4.43C16.935 4.662 16.626 4.73 16.394 4.581C14.782 3.546 12.917 3 11 3C5.486 3 1 7.486 1 13C1 18.514 5.486 23 11 23C16.514 23 21 18.514 21 13C21 12.67 20.984 12.345 20.953 12.024C20.926 11.749 21.127 11.504 21.402 11.478C21.682 11.455 21.922 11.652 21.948 11.927C21.982 12.28 22 12.638 22 13C22 19.065 17.065 24 11 24Z">
        </path>

        <path
            d="M12.5002 15.2502C12.3723 15.2502 12.2442 15.2012 12.1462 15.1042L7.64625 10.6042C7.45125 10.4092 7.45125 10.0922 7.64625 9.89725C7.84125 9.70225 8.15825 9.70225 8.35325 9.89725L12.4992 14.0432L23.1462 3.39625C23.3412 3.20125 23.6583 3.20125 23.8533 3.39625C24.0483 3.59125 24.0483 3.90825 23.8533 4.10325L12.8532 15.1032C12.7562 15.2012 12.6282 15.2502 12.5002 15.2502Z">
        </path>

</svg>