<svg fill="#F1592A" width="100" height="100" version="1.1" viewBox="0 0 600 500" xmlns="http://www.w3.org/2000/svg" xmlns:xlink="http://www.w3.org/1999/xlink">

    <path d="m490.25 215.79v-93.098c69.395-2.4258 69.547-102.52 0-105h-323.75c-32.977-0.09375-55.941 29.293-52.5 61.25-11.504 0.19141-11.5 17.312 0 17.5v253.75c-11.504 0.19141-11.5 17.312 0 17.5-3.3984 31.965 19.473 61.336 52.5 61.25h323.75c69.387-2.418 69.551-102.52 0-105v-89.918c135.26 46.555 105.31 244.51-39.375 247.42h-74.375c-4.8359 0-8.75 3.9141-8.75 8.75 0 4.8359 3.9141 8.75 8.75 8.75h74.375c168.1-4.1641 198.41-234.53 39.375-283.15zm-358.75-145.6c0-19.305 15.695-35 35-35h17.5c45.465 1.3633 46.633 66.941 1.2617 69.871-7.2695 0.86328-15.324-2.5898-19-8.6211 12.656-0.33594 11.293-18.668-1.0977-17.5 2.6562-7.8242 14.562-12.238 19.508-5.1523 1.1289 1.8867 0.58203 4.9492-1.0586 5.9648-4.1094 2.5391-5.3828 7.9297-2.8438 12.039 2.5469 4.1172 7.9453 5.3906 12.039 2.8438 9.7852-6.043 12.938-19.703 6.8867-29.832-14.336-22.52-48.73-10.867-52.977 14.133h-15.219v-8.75zm52.5 341.25h-17.5c-19.305 0-35-15.695-35-35v-8.75h15.219c4.0156 24.824 38.824 36.699 52.977 14.125 6.0508-10.117 2.8945-23.781-6.8867-29.82-4.0938-2.5469-9.4922-1.2812-12.039 2.8438-2.5391 4.1094-1.2656 9.5039 2.8438 12.039 1.6406 1.0156 2.1875 4.0742 1.0586 5.957-4.9531 7.0859-16.844 2.6875-19.508-5.1445 12.324 1.1992 13.707-17.059 1.332-17.5 2.9414-6.0664 11.797-9.4609 18.652-8.6133 45.508 2.8672 44.328 68.496-1.1523 69.863zm288.75-199.41c-11.781-2.1914-27.957-1.8789-40.129-1.8398l20.062-20.062c8.0469-8.0977-4.2422-20.445-12.375-12.371l-34.988 34.988c-2.4688 2.4258-3.2617 6.3477-1.9023 9.5391 0.44531 1.0742 1.0898 2.0469 1.9023 2.8555l34.988 34.988c8.1133 8.043 20.438-4.2344 12.371-12.375l-20.062-20.062c12.211-0.019531 28.348-0.42969 40.129 2.0234v94.227h-288.75c-16.66-0.19531-32.547 10.25-36.695 26.25h-15.805v-253.75h15.805c4.0547 15.828 20.234 26.727 36.461 26.203 0.23047 0.046874 288.98 0.046874 288.98 0.046874v89.34z"></path>
			
    <path d="m223.72 222.61 27.727 18.156-10.895 30.207c-2.9141 8.1172-0.39453 16.844 6.4336 22.234 7.1016 5.5977 16.594 6.0156 24.172 1.0664l30.965-20.293 30.965 20.293c3.5273 2.3086 7.4609 3.4453 11.375 3.4453 13.262 0.35938 24.352-14.066 19.227-26.746l-10.887-30.207 27.727-18.156c7.5625-4.957 10.809-13.688 8.2539-22.242-2.5703-8.6133-10.449-14.398-19.602-14.398h-36.121l-11.691-32.43c-2.9141-8.1094-10.477-13.348-19.25-13.348-8.7773 0-16.34 5.2383-19.25 13.348l-11.691 32.43h-36.121c-19.609-0.49219-28.242 26.156-11.348 36.641z"></path>
		
    <path d="m306.5 437.7c-28.949 0-52.5 23.551-52.5 52.5 2.4648 69.484 102.55 69.465 105 0 0-28.949-23.551-52.5-52.5-52.5zm0 87.5c-46.254-1.4648-46.246-68.543 0-70 46.254 1.4648 46.242 68.543 0 70z"></path>
		
</svg>