<svg
    class="d-block flex-shrink-0"
    style="color:#F1592A"
    width="24"
    height="24"
    viewBox="0 0 24 24"
    fill="currentColor"
    xmlns="http://www.w3.org/2000/svg">
        <path
            d="M23.479 10.9238C23.9514 10.4634 24.1181 9.78767 23.9144 9.15956C23.7101 8.53144 23.1781 8.08307 22.5245 7.98791L16.7134 7.14354C16.4659 7.1075 16.252 6.95227 16.1415 6.72784L13.5435 1.46216C13.2518 0.870571 12.6597 0.50293 11.9999 0.50293C11.3405 0.50293 10.7485 0.870571 10.4568 1.46216L7.85829 6.72784C7.74776 6.95227 7.53342 7.1075 7.28592 7.14354L1.47479 7.98839C0.821687 8.08307 0.289688 8.53144 0.0854429 9.15956C-0.118322 9.78767 0.0484385 10.4634 0.520845 10.9238L4.72541 15.0221C4.90467 15.197 4.98684 15.4489 4.94455 15.6949L3.95216 21.4825C3.84067 22.1327 4.10258 22.7772 4.6365 23.1655C5.16994 23.5543 5.86438 23.6047 6.44924 23.2967L11.6462 20.5641C11.8677 20.4478 12.1321 20.4478 12.3536 20.5641L17.551 23.2967C17.8048 23.4303 18.0797 23.4961 18.3531 23.4961C18.7083 23.4961 19.062 23.3851 19.3638 23.1655C19.8977 22.7772 20.1596 22.1327 20.0481 21.4825L19.0552 15.6954C19.013 15.4489 19.0951 15.1975 19.2744 15.0226L23.479 10.9238ZM18.1085 15.8578L19.1009 21.6449C19.1509 21.9362 19.0379 22.2144 18.7986 22.3884C18.5588 22.5619 18.2604 22.583 17.9985 22.4465L12.801 19.7135C12.5506 19.5823 12.2748 19.516 11.9999 19.516C11.725 19.516 11.4496 19.5823 11.1988 19.714L6.0023 22.4465C5.73943 22.583 5.44099 22.5619 5.20166 22.3884C4.96234 22.2144 4.84988 21.9366 4.89938 21.6449L5.89177 15.8578C5.98741 15.2994 5.80238 14.7294 5.39678 14.3344L1.19173 10.2356C0.979796 10.0289 0.90771 9.73769 0.9995 9.45655C1.09081 9.17494 1.32004 8.98174 1.61272 8.93897L7.42337 8.0946C7.9842 8.01338 8.4691 7.6616 8.71948 7.15315L11.318 1.88747C11.4487 1.62219 11.7039 1.46408 11.9994 1.46408C12.2955 1.46408 12.5502 1.62219 12.6814 1.88747L15.2798 7.15315C15.5302 7.6616 16.0146 8.01338 16.5755 8.0946L22.3866 8.93897C22.6793 8.98174 22.9085 9.17494 22.9998 9.45655C23.0911 9.73769 23.0195 10.0289 22.8076 10.2356L18.603 14.3339C18.1974 14.7294 18.0124 15.2989 18.1085 15.8578Z">
        </path>
              
</svg>