<svg
    class="d-block flex-shrink-0"
    style="color:#F1592A"
    width="24"
    height="24"
    viewBox="0 0 24 24"
    fill="currentColor"
    xmlns="http://www.w3.org/2000/svg">
        <path
            d="M11.9266 11.9488V7.48998C11.9266 7.22049 11.7181 7 11.4633 7C11.2085 7 11 7.22049 11 7.48998V12.1448C11 12.2673 11.0463 12.3898 11.139 12.4878L16.2124 15.853C16.305 15.951 16.4208 16 16.5367 16C16.6525 16 16.7683 15.951 16.861 15.853C17.0463 15.657 17.0463 15.363 16.861 15.167L11.9266 11.9488Z">
        </path>

        <path
            d="M12 1C5.92609 1 1 5.92609 1 12C1 18.0739 5.92609 23 12 23C18.0739 23 23 18.0739 23 12C23 5.92609 18.0739 1 12 1ZM12 22.0435C6.45217 22.0435 1.95652 17.5478 1.95652 12C1.95652 6.45217 6.45217 1.95652 12 1.95652C17.5478 1.95652 22.0435 6.45217 22.0435 12C22.0435 17.5478 17.5478 22.0435 12 22.0435Z">
        </path>
              
</svg>