<svg width="44" height="44" viewBox="0 0 44 44" fill="none" xmlns="http://www.w3.org/2000/svg">
<path d="M21.6651 22.2031H18.0651C17.6651 22.2031 17.3984 22.4698 17.3984 22.8698V25.8698C17.3984 26.2698 17.6651 26.5365 18.0651 26.5365H21.6651C22.0651 26.5365 22.3318 26.2698 22.3318 25.8698V22.8698C22.3318 22.5365 21.9984 22.2031 21.6651 22.2031ZM20.9984 25.2031H18.7318V23.5365H20.9984V25.2031Z" fill="#1E1E1E"/>
<path d="M28.8005 22.8698V25.8698C28.8005 26.2031 28.4672 26.5365 28.1339 26.5365H24.5339C24.2005 26.5365 23.8672 26.2031 23.8672 25.8698V22.8698C23.8672 22.5365 24.2005 22.2031 24.5339 22.2031H28.1339C28.4672 22.2031 28.8005 22.5365 28.8005 22.8698Z" fill="#1E1E1E"/>
<path d="M15.1339 28.1367H11.5339C11.1339 28.1367 10.8672 28.4034 10.8672 28.8034V31.8034C10.8672 32.2034 11.1339 32.4701 11.5339 32.4701H15.1339C15.5339 32.4701 15.8005 32.2034 15.8005 31.8034V28.8034C15.8005 28.4034 15.5339 28.1367 15.1339 28.1367ZM14.4672 31.1367H12.2005V29.4701H14.4672V31.1367Z" fill="#1E1E1E"/>
<path d="M28.1339 28.1367H24.5339C24.1339 28.1367 23.8672 28.4034 23.8672 28.8034V31.8034C23.8672 32.2034 24.1339 32.4701 24.5339 32.4701H28.1339C28.5339 32.4701 28.8005 32.2034 28.8005 31.8034V28.8034C28.8005 28.4034 28.4672 28.1367 28.1339 28.1367ZM27.4672 31.1367H25.2005V29.4701H27.4672V31.1367Z" fill="#1E1E1E"/>
<path d="M43.3307 33.6693V30.6693V28.0026C43.3307 27.6693 43.0641 27.3359 42.6641 27.3359H31.4641V21.4026L36.0641 22.5359C36.1974 22.6026 36.3974 22.5359 36.5974 22.4693C36.7307 22.4026 36.8641 22.2026 36.9307 22.0693L37.8641 18.4026C37.9307 18.2026 37.8641 18.0693 37.7974 17.8693C37.7307 17.7359 37.5974 17.6026 37.3974 17.6026L36.1307 17.3359L37.7974 13.2026L40.9307 12.8693L39.7974 15.6693C39.6641 16.0026 39.7974 16.4026 40.1307 16.5359C40.1974 16.6026 40.2641 16.6026 40.3974 16.6026C40.6641 16.6026 40.9307 16.4693 40.9974 16.2026L42.5307 12.4026C42.5307 12.3359 42.5974 12.2693 42.5974 12.2026V12.1359C42.5974 12.0693 42.5974 12.0026 42.5307 11.9359V11.8693C42.5307 11.8026 42.4641 11.7359 42.3974 11.6693L35.0641 3.8026C34.9307 3.66927 34.7307 3.6026 34.5307 3.6026L23.6641 3.93594C23.3974 3.93594 23.1974 4.06927 23.0641 4.33594C22.9307 4.53594 22.9974 4.86927 23.1307 5.06927L25.8641 8.33594L23.4641 14.2693L19.9974 13.3359C19.8641 13.3359 19.7974 13.3359 19.6641 13.3359L17.2641 13.9359C18.1974 12.6026 18.7307 11.0693 18.7307 9.33594C18.7307 4.93594 15.1307 1.33594 10.7307 1.33594C6.26406 1.33594 2.66406 4.93594 2.73073 9.33594C2.73073 12.4693 4.53073 15.1359 7.13073 16.4693L2.3974 17.6693C2.26406 17.7359 2.06406 17.8026 1.9974 17.9359C1.93073 18.0693 1.86406 18.2693 1.93073 18.4693L2.86406 22.1359C2.93073 22.4693 3.1974 22.6693 3.53073 22.6693C3.5974 22.6693 3.66406 22.6693 3.66406 22.6693L8.26406 21.5359V25.6026H1.33073C0.997396 25.6026 0.664062 25.9359 0.664062 26.2693V42.0026C0.664062 42.4026 0.997396 42.6693 1.33073 42.6693H8.86406H14.9974H15.0641H24.6641H24.7307H30.7974C30.7974 42.6693 30.7974 42.6693 30.8641 42.6693H42.6641C43.0641 42.6693 43.3307 42.3359 43.3307 42.0026V39.3359V36.3359V33.6693C43.3307 33.7359 43.3307 33.7359 43.3307 33.6693ZM8.1974 41.3359H1.9974V26.8693H8.1974V41.3359ZM4.06406 9.33594C4.06406 5.66927 7.06406 2.66927 10.7307 2.66927C14.3974 2.66927 17.3974 5.66927 17.3974 9.33594C17.3974 13.0026 14.3974 16.0026 10.7307 16.0026C7.06406 16.0026 4.06406 13.0026 4.06406 9.33594ZM30.1307 41.3359H25.3307V34.8026C25.3307 34.4026 25.0641 34.1359 24.6641 34.1359H15.0641C14.6641 34.1359 14.3974 34.4026 14.3974 34.8026V41.3359H9.53073V21.1359L19.8641 18.6026L30.1974 21.1359V41.3359H30.1307ZM24.7307 14.6026L26.8641 9.4026L30.3307 13.6026C30.4641 13.7359 30.6641 13.8693 30.8641 13.8693H30.9307L36.3307 13.3359L34.1974 18.4693C30.6641 18.2026 27.4641 16.8693 24.7307 14.6026ZM41.9974 33.0026H39.4641V31.3359H41.9974V33.0026ZM41.9974 30.0026H38.7974C38.4641 30.0026 38.1307 30.2693 38.1307 30.6693V33.7359C38.1307 34.1359 38.4641 34.4026 38.7974 34.4026H41.9974V35.6026H38.7974C38.4641 35.6026 38.1307 35.9359 38.1307 36.2693V39.3359C38.1307 39.6693 38.4641 40.0026 38.7974 40.0026H41.9974V41.3359H31.4641V28.6693H41.9974V30.0026Z" fill="#1E1E1E"/>
<path d="M15.8005 22.8698V25.8698C15.8005 26.2031 15.4672 26.5365 15.1339 26.5365H11.5339C11.1339 26.5365 10.8672 26.2031 10.8672 25.8698V22.8698C10.8672 22.5365 11.1339 22.2031 11.5339 22.2031H15.1339C15.5339 22.2031 15.8005 22.5365 15.8005 22.8698Z" fill="#1E1E1E"/>
<path d="M22.3318 28.8034V31.8034C22.3318 32.2034 21.9984 32.4701 21.6651 32.4701H18.0651C17.7318 32.4701 17.3984 32.2034 17.3984 31.8034V28.8034C17.3984 28.4034 17.7318 28.1367 18.0651 28.1367H21.6651C21.9984 28.1367 22.3318 28.4034 22.3318 28.8034Z" fill="#1E1E1E"/>
<path d="M36.9307 30.6706V33.7372C36.9307 34.1372 36.6641 34.4039 36.2641 34.4039H33.3307C32.9307 34.4039 32.6641 34.1372 32.6641 33.7372V30.6706C32.6641 30.2706 32.9307 30.0039 33.3307 30.0039H36.2641C36.5974 30.0039 36.9307 30.2706 36.9307 30.6706Z" fill="#1E1E1E"/>
<path d="M36.2682 35.668H33.2682C32.8682 35.668 32.6016 35.9346 32.6016 36.3346V39.3346C32.6016 39.7346 32.8682 40.0013 33.2682 40.0013H36.2682C36.6682 40.0013 36.9349 39.7346 36.9349 39.3346V36.268C36.9349 35.9346 36.6016 35.668 36.2682 35.668ZM35.6016 38.668H33.9349V36.9346H35.6016V38.668Z" fill="#1E1E1E"/>
<path d="M6.59635 28.7344H3.59635C3.19635 28.7344 2.92969 29.001 2.92969 29.401V32.4677C2.92969 32.8677 3.19635 33.1344 3.59635 33.1344H6.59635C6.99635 33.1344 7.26302 32.8677 7.26302 32.4677V29.401C7.26302 29.0677 6.92969 28.7344 6.59635 28.7344ZM5.92969 31.801H4.26302V30.0677H5.92969V31.801Z" fill="#1E1E1E"/>
<path d="M7.26302 35.737V38.8036C7.26302 39.2036 6.99635 39.4703 6.59635 39.4703H3.59635C3.19635 39.4703 2.92969 39.2036 2.92969 38.8036V35.737C2.92969 35.4036 3.19635 35.0703 3.59635 35.0703H6.52969C6.92969 35.0703 7.26302 35.4036 7.26302 35.737Z" fill="#1E1E1E"/>
<path d="M10.7284 14.7331C11.1284 14.7331 11.395 14.3998 11.395 14.0665V13.4665C12.4617 13.1998 13.2617 12.1998 13.2617 11.0665C13.2617 9.66646 12.1284 8.53313 10.7284 8.53313C10.395 8.53313 10.1284 8.39979 9.86169 8.19979C9.66169 7.99979 9.52836 7.66646 9.52836 7.33313C9.52836 6.66646 10.0617 6.13313 10.7284 6.13313C11.0617 6.13313 11.3284 6.26646 11.595 6.46646C11.795 6.66646 11.9284 6.99979 11.9284 7.33313C11.9284 7.73313 12.195 7.99979 12.595 7.99979C12.995 7.99979 13.2617 7.73313 13.2617 7.33313C13.2617 6.66646 12.995 5.99979 12.5284 5.53313C12.195 5.19979 11.795 4.99979 11.395 4.86646V4.26646C11.395 3.86646 11.0617 3.59979 10.6617 3.66646C10.2617 3.66646 9.99503 3.99979 10.0617 4.39979V4.93313C8.99503 5.26646 8.19503 6.19979 8.26169 7.33313C8.26169 7.99979 8.52836 8.66646 8.99503 9.13313C9.46169 9.59979 10.1284 9.86646 10.795 9.86646C11.1284 9.86646 11.395 9.99979 11.6617 10.1998C11.8617 10.3998 11.995 10.7331 11.995 11.0665C11.995 11.7331 11.4617 12.2665 10.795 12.2665C10.4617 12.2665 10.195 12.1331 9.92836 11.9331C9.72836 11.7331 9.59503 11.3998 9.59503 11.0665C9.59503 10.6665 9.32836 10.3998 8.92836 10.3998C8.52836 10.3998 8.26169 10.6665 8.26169 11.0665C8.26169 11.7331 8.52836 12.3998 8.99503 12.8665C9.32836 13.1998 9.72836 13.3998 10.1284 13.5331V14.1331C10.0617 14.3998 10.3284 14.7331 10.7284 14.7331Z" fill="#1E1E1E"/>
</svg>
