<svg fill="#F1592A" height="100" viewBox="0 0 600 600" width="100" xmlns="http://www.w3.org/2000/svg">
    <path d="m442.83 143.79c20.914 5.6016 32.672 29.52 26.27 53.418-6.4023 23.898-28.547 38.73-49.457 33.125-20.91-5.6016-32.672-29.516-26.27-53.414 6.4023-23.898 28.547-38.73 49.457-33.129" fill-rule="evenodd">
    </path>
            
    <path d="m393.95 279.84c-1.4336-7.6367-31.426-18.816-45.148-27.668-27.496-17.742-50.16-43.859-61.523-66.578-4.1328-8.2617-0.78516-18.312 7.4805-22.445 8.2656-4.1289 18.312-0.77734 22.445 7.4805 16.973 33.926 58.039 61.98 105.71 69.758 47.02 7.6758 111.32 49.766 116.25 86.996 1.1992 9.1719-5.2656 17.574-14.438 18.77-9.168 1.1914-17.574-5.2656-18.766-14.438-2.1914-16.488-21.281-26.504-40.008-35.605 2.1602 9.5273 4.5117 19.609 6.6367 28.734 12.062 51.793 6.2773 34.512 33.797 86.508 17.711 33.465 32.34 72.07 38.922 95.961 2.832 10.398-3.3047 21.129-13.703 23.961-10.398 2.832-21.129-3.3047-23.969-13.703-5.9062-21.449-19.348-56.816-35.852-88-7.0117-13.25-14.504-25.801-22.07-36.289-3.3828 21.016-10.176 45.941-16.598 69.445-5.5 20.176-10.695 39.207-12.77 52.652-1.6523 10.695-11.66 18.031-22.355 16.387-10.703-1.6523-18.039-11.66-16.391-22.355 2.207-14.273 7.8555-34.984 13.848-56.941 14.168-51.918 19.996-77.145 11.781-112.4-4.5664-19.594-10.172-43.656-13.277-60.227z" fill-rule="evenodd">
    </path>
    
    <path d="m206.56 31.254 18.055 21.387 27.766-3.8203c5-0.70703 9.6328 2.7773 10.336 7.7773 0.33984 2.4141-0.29297 4.7383-1.6016 6.5781l-14.48 23.328 12.219 25.234c2.1992 4.543 0.30078 10.008-4.2383 12.203-1.9922 0.96484-4.168 1.1406-6.1602 0.64844l-27.227-6.7031-20.227 19.422c-3.6445 3.4883-9.4297 3.3672-12.918-0.27344-1.5273-1.6016-2.3672-3.6133-2.5156-5.6562l-2.0312-27.965-24.723-13.234c-4.4414-2.3867-6.1094-7.9258-3.7227-12.363 1.0547-1.9609 2.7148-3.375 4.6328-4.1445l-0.003906-0.015625 25.957-10.574 4.9375-27.547c0.87891-4.957 5.6094-8.2656 10.566-7.3789 2.1797 0.375 4.0508 1.5117 5.3789 3.0977z" fill-rule="evenodd">
    </path>
          
</svg>